Coordinates
version=1
nRows=9
nColumns=36
inDegrees=yes

Units are S.I. units (second, meters, Newtons, ...)
If the header above contains a line with 'inDegrees', this indicates whether rotational values are in degrees (yes) or radians (no).

endheader
time	pelvis_tilt	pelvis_list	pelvis_rotation	pelvis_tx	pelvis_ty	pelvis_tz	hip_flexion_r	hip_adduction_r	hip_rotation_r	knee_angle_r	knee_angle_r_beta	ankle_angle_r	subtalar_angle_r	mtp_angle_r	hip_flexion_l	hip_adduction_l	hip_rotation_l	knee_angle_l	knee_angle_l_beta	ankle_angle_l	subtalar_angle_l	mtp_angle_l	lumbar_extension	lumbar_bending	lumbar_rotation	arm_flex_r	arm_add_r	arm_rot_r	elbow_flex_r	pro_sup_r	arm_flex_l	arm_add_l	arm_rot_l	elbow_flex_l	pro_sup_l
      1.37000000	     -5.44581409	      5.60709528	      0.19167956	     -0.48729102	      1.13900015	     -0.55358200	     29.10120380	     -8.72851299	     -7.32299188	      6.74139441	      0.11765953	    -40.08262236	     -0.66054682	     -7.40049784	     31.01688733	     -1.94665237	     -7.96963355	     16.02125593	      0.27962367	    -29.65895408	     -6.35647976	     -7.40049784	    -18.22529643	     -2.93571765	     14.28962428	     84.54274097	   -130.37873199	     85.68661958	    127.90652698	     95.16480347	     75.17436673	    -66.19421877	     61.83614450	     65.31393366	    102.78543062
      1.38000000	     -5.05796944	      5.46022641	     -0.09372928	     -0.47394115	      1.11750002	     -0.55377619	     29.01262346	     -8.71154780	     -6.47261291	      7.65849201	      0.13366590	    -41.42801410	     -2.86241598	     -7.44928114	     31.16404431	     -2.19981719	     -7.57313574	     16.87935611	      0.29460034	    -30.09650159	     -6.14314564	     -7.44928114	    -19.02638520	     -2.25898695	     10.70750304	     83.92350510	   -129.33000381	     85.88997106	    129.07754838	     88.12341745	     49.89356231	    -76.44661411	     35.43809787	     72.81785473	    104.14385135
      1.39000000	     -4.59217518	      5.34335492	     -0.33280522	     -0.46073758	      1.09515586	     -0.55382193	     29.00879350	     -8.74630391	     -5.39065311	      9.11864917	      0.15915045	    -42.41508916	     -4.52648437	     -7.50742061	     31.35724626	     -2.41387511	     -7.15828579	     18.03752722	      0.31481424	    -30.58921806	     -5.63570702	     -7.50742061	    -20.01582713	     -2.15635671	      5.58025893	     85.26352933	   -125.58915022	     88.01523916	    128.63768293	     89.74980545	    -26.93000894	    -79.00908601	    -40.66856928	     80.63359329	    103.10613750
      1.40000000	     -4.08747252	      5.18499861	     -0.58873791	     -0.44776283	      1.07190106	     -0.55396906	     29.17349627	     -8.72020367	     -3.88815651	     11.14033049	      0.19443545	    -42.94608890	     -5.66608358	     -7.49865358	     31.63564928	     -2.65544224	     -6.79392902	     19.50003866	      0.34033988	    -30.91639684	     -5.07794700	     -7.49865358	    -21.07943861	     -2.99698632	     -5.11944162	     90.97229527	   -111.70822508	     94.59586681	    124.20469190	     92.15225453	    -72.24207286	    -58.88802513	    -85.05181886	     89.81086388	    101.15080757
      1.41000000	     -3.57727285	      5.10193031	     -0.87063141	     -0.43501476	      1.04766753	     -0.55381604	     29.51545734	     -8.64167945	     -1.74556221	     13.41159093	      0.23407642	    -43.47507960	     -5.90932532	     -7.49872109	     32.03186486	     -2.85907481	     -6.60098331	     21.28431012	      0.37148129	    -30.83990033	     -4.41571238	     -7.49872109	    -21.74050244	     -2.84409537	     -4.14055530	     94.06675487	   -117.63574617	     99.32287779	    125.03585237	     92.18001859	    -71.60988625	    -54.59649446	    -83.12525886	     90.11553519	    100.72936158
      1.42000000	     -3.05861929	      5.02993462	     -1.12184163	     -0.42232902	      1.02243280	     -0.55347028	     29.89757076	     -8.44304532	      0.66726017	     15.47330587	      0.27006013	    -44.19172310	     -4.94697489	     -7.49877940	     32.57255462	     -3.11516748	     -6.71099679	     23.36375273	      0.40777441	    -30.27139855	     -3.27245568	     -7.49877940	    -22.31770131	     -2.70737621	     -3.04662104	     97.01835703	   -123.50918702	    103.85794940	    125.08343779	     92.13687340	    -70.71426990	    -50.89069658	    -80.48514446	     89.94381797	    100.27167642
      1.43000000	     -2.60741802	      4.63249782	     -1.44870626	     -0.40995414	      0.99633373	     -0.55287444	     30.30849368	     -7.75173592	      2.87749924	     17.78921198	      0.31048032	    -43.39300775	     -5.08724524	     -7.49883457	     33.35164287	     -3.79061266	     -6.99319047	     25.42246650	      0.44370574	    -30.45315855	     -1.99277491	     -7.49883457	    -22.80169717	     -2.21985321	     -2.10707040	     99.52015054	   -128.37911470	    107.90668487	    124.51930015	     92.02683584	    -69.59542465	    -46.93177725	    -77.43780981	     89.39338764	     99.66837277
      1.44000000	     -2.36776677	      3.90067967	     -1.81597947	     -0.39846477	      0.96940296	     -0.55209576	     31.32719122	     -6.61499838	      4.60953854	     22.67157945	      0.39569371	    -35.71668289	     -7.84171195	     -7.49893362	     34.55624501	     -4.83864081	     -7.32740758	     27.61247228	      0.48192856	    -30.58934545	     -1.27962322	     -7.49893362	    -23.10800163	     -1.40587071	     -1.23962776	    102.22011536	   -132.31587592	    111.85706030	    123.45082965	     91.19530074	    -68.42822897	    -42.97488759	    -73.93873755	     88.52762879	     98.01344143
      1.45000000	     -2.39420081	      3.73636214	     -2.16067277	     -0.38812139	      0.94136513	     -0.55156387	     33.66419198	     -6.06703984	      6.05310631	     31.37049507	      0.54751843	    -18.04568027	     -8.39788308	     -7.49932267	     36.10572866	     -5.23329434	     -7.73257059	     30.76869624	      0.53701506	    -27.53511493	     -3.30839709	     -7.49932267	    -23.13505208	     -1.32587592	     -0.63176313	    105.74633016	   -135.72736206	    115.86980713	    120.91611907	     98.09593758	    -67.53691251	    -39.46371810	    -70.55140027	     87.57009955	     98.96794934
